<svg width="25" height="25" viewBox="0 0 25 25" fill="none" xmlns="http://www.w3.org/2000/svg">
<g clip-path="url(#clip0_238_1395)">
<path d="M0 0H1.5625V1.5625H0V0Z" fill="white"/>
<path d="M1.5625 0H3.125V1.5625H1.5625V0Z" fill="#FFF0E1"/>
<path d="M6.25 0H7.8125V1.5625H6.25V0Z" fill="#FFF0E1"/>
<path d="M10.9375 0H12.5V1.5625H10.9375V0Z" fill="#FFF0E1"/>
<path d="M15.625 0H17.1875V1.5625H15.625V0Z" fill="#FFF0E1"/>
<path d="M20.3125 0H21.875V1.5625H20.3125V0Z" fill="#FFF0E1"/>
<path d="M0 1.5625H1.5625V3.125H0V1.5625Z" fill="#FFF0E1"/>
<path d="M9.375 1.5625H10.9375V3.125H9.375V1.5625Z" fill="#FFF0E1"/>
<path d="M14.0625 1.5625H15.625V3.125H14.0625V1.5625Z" fill="#FFF0E1"/>
<path d="M23.4375 1.5625H25V3.125H23.4375V1.5625Z" fill="#FFF0E1"/>
<path d="M3.125 3.125H4.6875V4.6875H3.125V3.125Z" fill="#FFF0E1"/>
<path d="M7.8125 3.125H9.375V4.6875H7.8125V3.125Z" fill="#FFF0E1"/>
<path d="M12.5 3.125H14.0625V4.6875H12.5V3.125Z" fill="#FFF0E1"/>
<path d="M17.1875 3.125H18.75V4.6875H17.1875V3.125Z" fill="#FFF0E1"/>
<path d="M21.875 3.125H23.4375V4.6875H21.875V3.125Z" fill="#FFF0E1"/>
<path d="M1.5625 4.6875H3.125V6.25H1.5625V4.6875Z" fill="#FFF0E1"/>
<path d="M6.25 4.6875H7.8125V6.25H6.25V4.6875Z" fill="#FFF0E1"/>
<path d="M15.625 4.6875H17.1875V6.25H15.625V4.6875Z" fill="#FFF0E1"/>
<path d="M20.3125 4.6875H21.875V6.25H20.3125V4.6875Z" fill="#FFF0E1"/>
<path d="M0 6.25H1.5625V7.8125H0V6.25Z" fill="#FFF0E1"/>
<path d="M10.9375 6.25H12.5V7.8125H15.625V9.375H14.0625V10.9375H12.5V9.375H10.9375V10.9375H9.375V9.375H7.8125V7.8125H10.9375V6.25Z" fill="#FFF0E1"/>
<path d="M18.75 6.25H20.3125V7.8125H18.75V6.25Z" fill="#FFF0E1"/>
<path d="M23.4375 6.25H25V7.8125H23.4375V6.25Z" fill="#FFF0E1"/>
<path d="M3.125 7.8125H4.6875V9.375H3.125V7.8125Z" fill="#FFF0E1"/>
<path d="M21.875 7.8125H23.4375V9.375H21.875V7.8125Z" fill="#FFF0E1"/>
<path d="M1.5625 9.375H3.125V10.9375H1.5625V9.375Z" fill="#FFF0E1"/>
<path d="M4.6875 9.375H7.8125V10.9375H4.6875V9.375Z" fill="#FFF0E1"/>
<path d="M15.625 9.375H18.75V10.9375H15.625V9.375Z" fill="#FFF0E1"/>
<path d="M23.4375 9.375H25V10.9375H23.4375V9.375Z" fill="#FFF0E1"/>
<path d="M0 10.9375H1.5625V12.5H0V10.9375Z" fill="#FFF0E1"/>
<path d="M3.125 10.9375H4.6875V12.5H3.125V10.9375Z" fill="#FFF0E1"/>
<path d="M7.8125 10.9375H9.375V12.5H7.8125V10.9375Z" fill="#FFF0E1"/>
<path d="M14.0625 10.9375H15.625V12.5H14.0625V10.9375Z" fill="#FFF0E1"/>
<path d="M18.75 10.9375H20.3125V12.5H18.75V10.9375Z" fill="#FFF0E1"/>
<path d="M21.875 10.9375H23.4375V12.5H21.875V10.9375Z" fill="#FFF0E1"/>
<path d="M1.5625 12.5H3.125V15.625H6.25V12.5H7.8125V15.625H15.625V12.5H17.1875V15.625H20.3125V12.5H21.875V14.0625H23.4375V15.625H21.875V17.1875H12.5V23.4375H10.9375V17.1875H1.5625V15.625H0V14.0625H1.5625V12.5Z" fill="#FFF0E1"/>
<path d="M23.4375 12.5H25V14.0625H23.4375V12.5Z" fill="#FFF0E1"/>
<path d="M15.625 21.875H17.1875V23.4375H15.625V21.875Z" fill="#FFF0E1"/>
<path d="M12.5 23.4375H15.625V25H12.5V23.4375Z" fill="#FFF0E1"/>
</g>
<defs>
<clipPath id="clip0_238_1395">
<rect width="25" height="25" fill="white"/>
</clipPath>
</defs>
</svg>
