<svg width="25" height="25" viewBox="0 0 25 25" fill="none" xmlns="http://www.w3.org/2000/svg">
<g clip-path="url(#clip0_238_1393)">
<path d="M10.9375 0H15.625V1.5625H10.9375V0Z" fill="#FFF0E1"/>
<path d="M9.375 1.5625H10.9375V3.125H9.375V1.5625Z" fill="#FFF0E1"/>
<path d="M15.625 1.5625H17.1875V3.125H15.625V1.5625Z" fill="#FFF0E1"/>
<path d="M3.125 3.125H7.8125V6.25H6.25V4.6875H3.125V3.125Z" fill="#FFF0E1"/>
<path d="M10.9375 3.125H15.625V4.6875H10.9375V3.125Z" fill="#FFF0E1"/>
<path d="M18.75 3.125H21.875V4.6875H18.75V3.125Z" fill="#FFF0E1"/>
<path d="M1.5625 4.6875H3.125V9.375H1.5625V4.6875Z" fill="#FFF0E1"/>
<path d="M17.1875 4.6875H18.75V6.25H17.1875V4.6875Z" fill="#FFF0E1"/>
<path d="M21.875 4.6875H23.4375V9.375H21.875V4.6875Z" fill="#FFF0E1"/>
<path d="M7.8125 6.25H9.375V7.8125H7.8125V6.25Z" fill="#FFF0E1"/>
<path d="M10.9375 6.25H17.1875V7.8125H15.625V10.9375H17.1875V12.5H18.75V14.0625H20.3125V12.5H21.875V14.0625H23.4375V12.5H21.875V10.9375H23.4375V9.375H25V15.625H17.1875V20.3125H15.625V15.625H14.0625V12.5H10.9375V17.1875H9.375V20.3125H7.8125V15.625H4.6875V14.0625H6.25V10.9375H9.375V7.8125H10.9375V6.25Z" fill="#FFF0E1"/>
<path d="M0 9.375H1.5625V12.5H3.125V14.0625H1.5625V15.625H4.6875V17.1875H0V9.375Z" fill="#FFF0E1"/>
<path d="M4.6875 9.375H6.25V10.9375H4.6875V9.375Z" fill="#FFF0E1"/>
<path d="M17.1875 9.375H18.75V10.9375H17.1875V9.375Z" fill="#FFF0E1"/>
<path d="M20.3125 9.375H21.875V10.9375H20.3125V9.375Z" fill="#FFF0E1"/>
<path d="M3.125 10.9375H4.6875V12.5H3.125V10.9375Z" fill="#FFF0E1"/>
<path d="M18.75 10.9375H20.3125V12.5H18.75V10.9375Z" fill="#FFF0E1"/>
<path d="M6.25 20.3125H7.8125V21.875H9.375V23.4375H6.25V20.3125Z" fill="#FFF0E1"/>
<path d="M17.1875 20.3125H18.75V23.4375H17.1875V20.3125Z" fill="#FFF0E1"/>
<path d="M9.375 23.4375H17.1875V25H9.375V23.4375Z" fill="#FFF0E1"/>
</g>
<defs>
<clipPath id="clip0_238_1393">
<rect width="25" height="25" fill="white"/>
</clipPath>
</defs>
</svg>
