<svg width="25" height="25" viewBox="0 0 25 25" fill="none" xmlns="http://www.w3.org/2000/svg">
<path d="M3.125 1.5625H4.6875V6.25H6.25V20.3125H7.8125V9.375H12.5V7.8125H15.625V6.25H17.1875V4.6875H18.75V6.25H20.3125V7.8125H21.875V9.375H23.4375V20.3125H25V23.4375H0V9.375H1.5625V6.25H3.125V1.5625Z" fill="#FFF0E1"/>
<path d="M17.1875 7.8125H18.75V9.375H17.1875V7.8125Z" fill="#251607"/>
<path d="M3.125 10.9375H4.6875V12.5H3.125V10.9375Z" fill="#251607"/>
<path d="M9.375 10.9375H10.9375V12.5H9.375V10.9375Z" fill="#251607"/>
<path d="M12.5 10.9375H14.0625V12.5H12.5V10.9375Z" fill="#251607"/>
<path d="M15.625 10.9375H18.75V12.5H15.625V10.9375Z" fill="#251607"/>
<path d="M20.3125 10.9375H21.875V12.5H20.3125V10.9375Z" fill="#251607"/>
<path d="M3.125 14.0625H4.6875V15.625H3.125V14.0625Z" fill="#251607"/>
<path d="M9.375 14.0625H10.9375V15.625H9.375V14.0625Z" fill="#251607"/>
<path d="M12.5 14.0625H14.0625V15.625H12.5V14.0625Z" fill="#251607"/>
<path d="M15.625 14.0625H18.75V15.625H15.625V14.0625Z" fill="#251607"/>
<path d="M20.3125 14.0625H21.875V15.625H20.3125V14.0625Z" fill="#251607"/>
<path d="M3.125 17.1875H4.6875V18.75H3.125V17.1875Z" fill="#251607"/>
<path d="M9.375 17.1875H10.9375V18.75H9.375V17.1875Z" fill="#251607"/>
<path d="M12.5 17.1875H14.0625V18.75H12.5V17.1875Z" fill="#251607"/>
<path d="M15.625 17.1875H18.75V18.75H15.625V17.1875Z" fill="#251607"/>
<path d="M20.3125 17.1875H21.875V18.75H20.3125V17.1875Z" fill="#251607"/>
<path d="M17.1875 20.3125H18.75V21.875H17.1875V20.3125Z" fill="#251607"/>
</svg>
