<svg width="25" height="25" viewBox="0 0 25 25" fill="none" xmlns="http://www.w3.org/2000/svg">
<g clip-path="url(#clip0_238_1396)">
<path d="M10.9375 0H15.625V1.5625H10.9375V0Z" fill="#FFF0E1"/>
<path d="M9.375 1.5625H10.9375V4.6875H15.625V1.5625H17.1875V3.125H18.75V4.6875H17.1875V6.25H9.375V4.6875H6.25V3.125H9.375V1.5625Z" fill="#FFF0E1"/>
<path d="M7.8125 7.8125H10.9375V9.375H7.8125V7.8125Z" fill="#FFF0E1"/>
<path d="M15.625 7.8125H18.75V9.375H15.625V7.8125Z" fill="#FFF0E1"/>
<path d="M6.25 9.375H7.8125V10.9375H6.25V9.375Z" fill="#FFF0E1"/>
<path d="M10.9375 9.375H12.5V10.9375H10.9375V9.375Z" fill="#FFF0E1"/>
<path d="M14.0625 9.375H15.625V10.9375H14.0625V9.375Z" fill="#FFF0E1"/>
<path d="M18.75 9.375H20.3125V10.9375H18.75V9.375Z" fill="#FFF0E1"/>
<path d="M4.6875 10.9375H6.25V12.5H4.6875V10.9375Z" fill="#FFF0E1"/>
<path d="M12.5 10.9375H14.0625V14.0625H12.5V10.9375Z" fill="#FFF0E1"/>
<path d="M20.3125 10.9375H21.875V12.5H20.3125V10.9375Z" fill="#FFF0E1"/>
<path d="M3.125 12.5H4.6875V14.0625H3.125V12.5Z" fill="#FFF0E1"/>
<path d="M17.1875 12.5H18.75V14.0625H17.1875V12.5Z" fill="#FFF0E1"/>
<path d="M21.875 12.5H23.4375V14.0625H21.875V12.5Z" fill="#FFF0E1"/>
<path d="M1.5625 14.0625H3.125V17.1875H1.5625V14.0625Z" fill="#FFF0E1"/>
<path d="M7.8125 14.0625H9.375V21.875H7.8125V17.1875H6.25V15.625H7.8125V14.0625Z" fill="#FFF0E1"/>
<path d="M15.625 14.0625H17.1875V15.625H15.625V14.0625Z" fill="#FFF0E1"/>
<path d="M20.3125 14.0625H21.875V15.625H20.3125V14.0625Z" fill="#FFF0E1"/>
<path d="M14.0625 15.625H15.625V17.1875H14.0625V15.625Z" fill="#FFF0E1"/>
<path d="M18.75 15.625H20.3125V21.875H18.75V18.75H15.625V17.1875H18.75V15.625Z" fill="#FFF0E1"/>
<path d="M3.125 17.1875H6.25V18.75H3.125V17.1875Z" fill="#FFF0E1"/>
<path d="M12.5 20.3125H14.0625V21.875H18.75V23.4375H9.375V21.875H12.5V20.3125Z" fill="#FFF0E1"/>
</g>
<defs>
<clipPath id="clip0_238_1396">
<rect width="25" height="25" fill="white"/>
</clipPath>
</defs>
</svg>
