<svg width="25" height="25" viewBox="0 0 25 25" fill="none" xmlns="http://www.w3.org/2000/svg">
<path d="M8.33333 8H16.6667V10.1429H8.33333V8ZM4.16667 12.2857V10.1429H8.33333V12.2857H4.16667ZM2.08333 14.4286V12.2857H4.16667V14.4286H2.08333ZM2.08333 16.5714V14.4286H0V16.5714H2.08333ZM4.16667 18.7143H2.08333V16.5714H4.16667V18.7143ZM8.33333 20.8571H4.16667V18.7143H8.33333V20.8571ZM16.6667 20.8571V23H8.33333V20.8571H16.6667ZM20.8333 18.7143V20.8571H16.6667V18.7143H20.8333ZM22.9167 16.5714V18.7143H20.8333V16.5714H22.9167ZM22.9167 14.4286H25V16.5714H22.9167V14.4286ZM20.8333 12.2857H22.9167V14.4286H20.8333V12.2857ZM20.8333 12.2857V10.1429H16.6667V12.2857H20.8333ZM10.4167 13.3571H14.5833V17.6429H10.4167V13.3571Z" fill="#FFF0E1"/>
</svg>
