<svg width="25" height="25" viewBox="0 0 25 25" fill="none" xmlns="http://www.w3.org/2000/svg">
<g clip-path="url(#clip0_238_1397)">
<path d="M0 0H7.8125V1.5625H9.375V3.125H12.5V4.6875H14.0625V6.25H15.625V7.8125H17.1875V6.25H15.625V4.6875H14.0625V3.125H12.5V1.5625H9.375V0H18.75V1.5625H21.875V3.125H23.4375V6.25H25V25H23.4375V23.4375H20.3125V20.3125H18.75V15.625H20.3125V10.9375H18.75V9.375H17.1875V10.9375H15.625V9.375H12.5V7.8125H9.375V6.25H6.25V4.6875H4.6875V10.9375H1.5625V9.375H3.125V7.8125H1.5625V6.25H0V0Z" fill="#FFF0E1"/>
<path d="M17.1875 10.9375H18.75V12.5H17.1875V10.9375Z" fill="#FFF0E1"/>
</g>
<defs>
<clipPath id="clip0_238_1397">
<rect width="25" height="25" fill="white"/>
</clipPath>
</defs>
</svg>
