<svg width="25" height="25" viewBox="0 0 25 25" fill="none" xmlns="http://www.w3.org/2000/svg">
<path d="M7.8125 6.25H9.375V7.8125H10.9375V9.375H14.0625V7.8125H15.625V6.25H17.1875V7.8125H20.3125V9.375H23.4375V10.9375H21.875V12.5H20.3125V15.625H18.75V17.1875H17.1875V18.75H15.625V20.3125H9.375V18.75H7.8125V17.1875H6.25V15.625H4.6875V12.5H3.125V10.9375H1.5625V9.375H4.6875V7.8125H7.8125V6.25Z" fill="#FFF0E1"/>
<path d="M6.25 10.9375H9.375V12.5H15.625V10.9375H18.75V12.5H17.1875V14.0625H14.0625V15.625H10.9375V14.0625H7.8125V12.5H6.25V10.9375Z" fill="#251607"/>
</svg>
