<svg width="25" height="25" viewBox="0 0 25 25" fill="none" xmlns="http://www.w3.org/2000/svg">
<g clip-path="url(#clip0_238_1400)">
<path d="M9.375 0H20.3125V1.5625H23.4375V3.125H25V6.25H23.4375V7.8125H21.875V9.375H20.3125V12.5H18.75V14.0625H15.625V12.5H14.0625V10.9375H18.75V9.375H14.0625V7.8125H17.1875V6.25H12.5V7.8125H10.9375V9.375H9.375V17.1875H7.8125V15.625H6.25V20.3125H9.375V25H7.8125V21.875H4.6875V20.3125H3.125V18.75H1.5625V15.625H0V10.9375H1.5625V7.8125H3.125V4.6875H4.6875V3.125H6.25V1.5625H9.375V0Z" fill="#FFF0E1"/>
<path d="M20.3125 12.5H21.875V14.0625H20.3125V12.5Z" fill="#FFF0E1"/>
<path d="M21.875 14.0625H23.4375V15.625H21.875V14.0625Z" fill="#FFF0E1"/>
<path d="M20.3125 15.625H21.875V21.875H20.3125V18.75H18.75V17.1875H20.3125V15.625Z" fill="#FFF0E1"/>
<path d="M15.625 21.875H20.3125V23.4375H18.75V25H17.1875V23.4375H15.625V21.875Z" fill="#FFF0E1"/>
</g>
<defs>
<clipPath id="clip0_238_1400">
<rect width="25" height="25" fill="white"/>
</clipPath>
</defs>
</svg>
